<?xml version="1.0" encoding="UTF-8"?>
<svg width="24px" height="24px" viewBox="0 0 24 24" version="1.1" xmlns="http://www.w3.org/2000/svg" xmlns:xlink="http://www.w3.org/1999/xlink">
    <!-- Generator: Sketch 54.1 (76490) - https://sketchapp.com -->
    <title>IcBag</title>
    <desc>Created with Sketch.</desc>
    <g id="IcBag" stroke="none" stroke-width="1" fill="none" fill-rule="evenodd">
        <g id="outline-local_mall-24px">
            <polygon id="Path" points="0 0 24 0 24 24 0 24"></polygon>
            <path d="M19,6 L17,6 C17,3.24 14.76,1 12,1 C9.24,1 7,3.24 7,6 L5,6 C3.9,6 3,6.9 3,8 L3,20 C3,21.1 3.9,22 5,22 L19,22 C20.1,22 21,21.1 21,20 L21,8 C21,6.9 20.1,6 19,6 Z M12,3 C13.66,3 15,4.34 15,6 L9,6 C9,4.34 10.34,3 12,3 Z M19,20 L5,20 L5,8 L19,8 L19,20 Z M12,12 C10.34,12 9,10.66 9,9 L7,9 C7,11.76 9.24,14 12,14 C14.76,14 17,11.76 17,9 L15,9 C15,10.66 13.66,12 12,12 Z" id="Shape" fill="#000000" fill-rule="nonzero"></path>
        </g>
    </g>
</svg>